<svg width="50" height="50" viewBox="0 0 50 50" fill="none" xmlns="http://www.w3.org/2000/svg">
<path d="M35.4166 7.29199H14.5833C8.33329 7.29199 4.16663 10.417 4.16663 17.7087V32.292C4.16663 39.5837 8.33329 42.7087 14.5833 42.7087H35.4166C41.6666 42.7087 45.8333 39.5837 45.8333 32.292V17.7087C45.8333 10.417 41.6666 7.29199 35.4166 7.29199ZM36.3958 19.9795L29.875 25.1878C28.5 26.292 26.75 26.8337 25 26.8337C23.25 26.8337 21.4791 26.292 20.125 25.1878L13.6041 19.9795C12.9375 19.4378 12.8333 18.4378 13.3541 17.7712C13.8958 17.1045 14.875 16.9795 15.5416 17.5212L22.0625 22.7295C23.6458 24.0003 26.3333 24.0003 27.9166 22.7295L34.4375 17.5212C35.1041 16.9795 36.1041 17.0837 36.625 17.7712C37.1666 18.4378 37.0625 19.4378 36.3958 19.9795Z" fill="#DBA925"/>
</svg>
